<?xml version="1.0" encoding="utf-8"?>
<!-- Generator: Adobe Illustrator 21.1.0, SVG Export Plug-In . SVG Version: 6.00 Build 0)  -->
<svg version="1.1" id="Layer_1" xmlns="http://www.w3.org/2000/svg" xmlns:xlink="http://www.w3.org/1999/xlink" x="0px" y="0px"
	 viewBox="0 0 20 26" style="enable-background:new 0 0 20 26;" xml:space="preserve">
<style type="text/css">
	.st0{fill:#33333A;}
</style>
<path class="st0" d="M19.2,5.7h-3.5V5.6c0-3.1-2.5-5.6-5.6-5.6C7,0,4.5,2.5,4.5,5.6v0.1H1.4L0.5,21.3c-0.1,1,0.3,2,1,2.8
	c0.7,0.7,1.7,1.2,2.7,1.2h12.1c1,0,2-0.4,2.7-1.2c0.7-0.7,1.1-1.7,1-2.8L19.2,5.7z M6,5.6c0-2.3,1.8-4.1,4.1-4.1
	c2.3,0,4.1,1.8,4.1,4.1v0.1H6V5.6z M18,23c-0.4,0.4-1,0.7-1.6,0.7H4.2c-0.6,0-1.2-0.2-1.6-0.7C2.2,22.6,2,22,2,21.4L2.8,7.2h1.7v2.1
	c0,0.4,0.3,0.8,0.8,0.8s0.8-0.3,0.8-0.8V7.2h8.2v2.1c0,0.4,0.3,0.8,0.8,0.8s0.8-0.3,0.8-0.8V7.2H18l0.8,14.2
	C18.6,22,18.4,22.6,18,23z"/>
</svg>
