<?xml version="1.0" encoding="utf-8"?>
<!-- Generator: Adobe Illustrator 21.1.0, SVG Export Plug-In . SVG Version: 6.00 Build 0)  -->
<svg version="1.1" id="Layer_1" xmlns="http://www.w3.org/2000/svg" xmlns:xlink="http://www.w3.org/1999/xlink" x="0px" y="0px"
	 viewBox="0 0 35 24" style="enable-background:new 0 0 35 24;" xml:space="preserve">
<style type="text/css">
	.st0{fill:#FFFFFF;}
</style>
<path class="st0" d="M34.6,4H0.4C0.2,4,0,3.8,0,3.6V0.4C0,0.2,0.2,0,0.4,0h34.2C34.8,0,35,0.2,35,0.4v3.2C35,3.8,34.8,4,34.6,4z"/>
<g>
	<path d="M34.6,14H0.4C0.2,14,0,13.8,0,13.6v-3.2C0,10.2,0.2,10,0.4,10h34.2c0.2,0,0.4,0.2,0.4,0.4v3.2C35,13.8,34.8,14,34.6,14z"/>
	<path d="M34.6,24H0.4C0.2,24,0,23.8,0,23.6v-3.2C0,20.2,0.2,20,0.4,20h34.2c0.2,0,0.4,0.2,0.4,0.4v3.2C35,23.8,34.8,24,34.6,24z"/>
</g>
<g>
	<path d="M34.6,4H0.4C0.2,4,0,3.8,0,3.6V0.4C0,0.2,0.2,0,0.4,0h34.2C34.8,0,35,0.2,35,0.4v3.2C35,3.8,34.8,4,34.6,4z"/>
	<path d="M34.6,14H0.4C0.2,14,0,13.8,0,13.6v-3.2C0,10.2,0.2,10,0.4,10h34.2c0.2,0,0.4,0.2,0.4,0.4v3.2C35,13.8,34.8,14,34.6,14z"/>
</g>
</svg>
