<?xml version="1.0" encoding="utf-8"?>
<!-- Generator: Adobe Illustrator 21.1.0, SVG Export Plug-In . SVG Version: 6.00 Build 0)  -->
<svg version="1.1" id="Layer_1" xmlns="http://www.w3.org/2000/svg" xmlns:xlink="http://www.w3.org/1999/xlink" x="0px" y="0px"
	 viewBox="0 0 24 22" style="enable-background:new 0 0 24 22;" xml:space="preserve">
<style type="text/css">
	.st0{fill:#33333A;}
</style>
<path class="st0" d="M16.9,0c-2.7,0-4.2,1.2-5,2.2h-0.1C11,1.3,9.5,0,6.8,0C3.5,0,0,2.1,0,6.8c0,6,7.9,12.4,11.3,14.9
	c0,0,0.2,0.2,0.4,0.2s0.4-0.2,0.4-0.2c3.4-2.5,11.3-8.9,11.3-14.9C23.6,2.1,20.1,0,16.9,0z M11.9,20.1C8.9,18,1.6,12,1.6,6.8
	c0-3.9,2.8-5.3,5.3-5.3c2.2,0,3.7,1.4,4.4,2.4c0.3,0.4,0.9,0.4,1.1,0c0.7-1,2.2-2.4,4.4-2.4c2.4,0,5.3,1.4,5.3,5.3
	C22.1,12,14.8,18,11.9,20.1z"/>
</svg>
