<?xml version="1.0" encoding="utf-8"?>
<!-- Generator: Adobe Illustrator 21.1.0, SVG Export Plug-In . SVG Version: 6.00 Build 0)  -->
<svg version="1.1" id="Layer_1" xmlns="http://www.w3.org/2000/svg" xmlns:xlink="http://www.w3.org/1999/xlink" x="0px" y="0px"
	 viewBox="0 0 170 25.3" style="enable-background:new 0 0 170 25.3;" xml:space="preserve">
<style type="text/css">
	.st0{fill:#33333A;}
</style>
<path class="st0" d="M14.4,16.3c1-1.3,1.6-3,1.6-4.8c0-4.4-3.6-8-8-8s-8,3.6-8,8s3.6,8,8,8c2.2,0,4.2-0.9,5.6-2.3l4.4,4.4
	c0.1,0.1,0.2,0.1,0.4,0.1c0.1,0,0.3-0.1,0.4-0.1c0.2-0.2,0.2-0.6,0-0.8L14.4,16.3z M8.1,18.3c-3.8,0-6.9-3-6.9-6.9s3-6.9,6.9-6.9
	s6.9,3,6.9,6.9S11.9,18.3,8.1,18.3z M89.6,3.3c-2.7,0-4.2,1.2-5,2.2h-0.1c-0.8-1-2.3-2.2-5-2.2c-3.3,0-6.8,2.1-6.8,6.8
	c0,6,7.9,12.4,11.3,14.9c0,0,0.2,0.2,0.4,0.2s0.4-0.2,0.4-0.2c3.4-2.5,11.3-8.9,11.3-14.9C96.3,5.4,92.8,3.3,89.6,3.3z M84.6,23.4
	c-3-2.2-10.3-8.2-10.3-13.3c0-3.9,2.8-5.3,5.3-5.3c2.2,0,3.7,1.4,4.4,2.4c0.3,0.4,0.9,0.4,1.1,0c0.7-1,2.2-2.4,4.4-2.4
	c2.4,0,5.3,1.4,5.3,5.3C94.8,15.2,87.5,21.2,84.6,23.4z M169.2,5.7h-3.5V5.6c0-3.1-2.5-5.6-5.6-5.6c-3.1,0-5.6,2.5-5.6,5.6v0.1h-3.1
	l-0.9,15.6c-0.1,1,0.3,2,1,2.8c0.7,0.7,1.7,1.2,2.7,1.2h12.1c1,0,2-0.4,2.7-1.2c0.7-0.7,1.1-1.7,1-2.8C170,21.3,169.2,5.7,169.2,5.7
	z M156,5.6c0-2.3,1.8-4.1,4.1-4.1s4.1,1.8,4.1,4.1v0.1L156,5.6L156,5.6z M168,23c-0.4,0.4-1,0.7-1.6,0.7h-12.2
	c-0.6,0-1.2-0.2-1.6-0.7c-0.4-0.4-0.6-1-0.6-1.6l0.8-14.2h1.7v2.1c0,0.4,0.3,0.8,0.8,0.8s0.8-0.3,0.8-0.8V7.2h8.2v2.1
	c0,0.4,0.3,0.8,0.8,0.8s0.8-0.3,0.8-0.8V7.2h2.1l0.8,14.2C168.6,22,168.4,22.6,168,23z"/>
</svg>
