<?xml version="1.0" encoding="utf-8"?>
<!-- Generator: Adobe Illustrator 21.1.0, SVG Export Plug-In . SVG Version: 6.00 Build 0)  -->
<svg version="1.1" id="Layer_1" xmlns="http://www.w3.org/2000/svg" xmlns:xlink="http://www.w3.org/1999/xlink" x="0px" y="0px"
	 viewBox="0 0 19 19" style="enable-background:new 0 0 19 19;" xml:space="preserve">
<style type="text/css">
	.st0{fill:#33333A;}
</style>
<path class="st0" d="M18.8,17.8l-4.4-4.5c1-1.3,1.6-3,1.6-4.8c0-4.4-3.6-8-8-8s-8,3.6-8,8s3.6,8,8,8c2.2,0,4.2-0.9,5.6-2.3l4.4,4.4
	c0.1,0.1,0.2,0.1,0.4,0.1c0.1,0,0.3-0.1,0.4-0.1C19.1,18.4,19.1,18.1,18.8,17.8z M8.1,15.3c-3.8,0-6.9-3-6.9-6.9s3-6.9,6.9-6.9
	c3.9,0,6.9,3,6.9,6.9S11.9,15.3,8.1,15.3z"/>
</svg>
